:SAMPLES-PER-SECOND 30
:FULLY-SPECIFIED
:DEGREES
105
root  -14.0512 38.9589 2.1383 -75.8122 -87.6183 69.3536
RightUpLeg  -17.1705 7.64569 -10.9715
RightLeg  23.3056 3.37335 1.39448
RightFoot  -0.935677 -0.622403 6.75554
RightToes  2.32829e-010 0 -3.6325e-017
Spine  7.22806 -0.883803 -2.50448
Spine1  10.5848 -1.39721 -0.300228
HEad  6.91498 1.41384 -2.71063
LeftShoulder1  -0.158298 3.92423 -31.5548
LeftArm  10.7334 7.42704 -43.6875
LeftForeArm  19.8977 -20.4692 -4.78592
LeftHand  -0.0156531 3.39057 -0.14429
RightShoulder  -0.773875 -5.70266 28.5569
RightArm  15.2058 -3.16644 43.9785
RightForeArm  13.089 12.3881 6.24656
RightHand  -0.081591 1.02624 -1.58374
LeftUpLeg  4.66063 4.22715 -9.42069
LeftLeg  16.2011 2.17354 0.609509
LeftFoot  -13.9337 0.358659 12.0793
LeftToes  -3.54706e-010 1.16038e-010 5.28031e-012
106
root  -15.2703 38.9258 1.99006 -52.1851 -86.9738 46.2187
RightUpLeg  -16.2126 2.21227 -9.94806
RightLeg  10.226 7.11784 0.385834
RightFoot  -0.924181 -0.70306 7.63535
RightToes  2.32829e-010 0 -3.6325e-017
Spine  6.14408 -1.08456 -1.99782
Spine1  11.0641 -1.55922 0.217643
HEad  6.89011 0.702158 -2.71898
LeftShoulder1  -0.145786 3.8912 -31.482
LeftArm  11.2709 6.49716 -43.6673
LeftForeArm  18.8442 -22.7924 -4.08829
LeftHand  -0.0237788 2.46861 0.365212
RightShoulder  -0.730775 -5.60077 28.1975
RightArm  13.9885 -2.74769 44.1921
RightForeArm  13.9264 11.7117 6.16738
RightHand  -0.0676964 0.917239 -1.3383
LeftUpLeg  6.7351 4.58519 -8.7251
LeftLeg  15.3026 0.518467 0.0847728
LeftFoot  -15.2462 0.501195 11.9542
LeftToes  -3.54706e-010 1.16038e-010 5.28031e-012
107
root  -16.5419 38.8411 1.83419 -41.0707 -86.0367 34.8267
RightUpLeg  -14.5765 -8.2427 -7.03084
RightLeg  -0.381371 14.5169 -1.54235
RightFoot  -1.15473 -0.909322 10.0232
RightToes  2.32829e-010 0 -3.6325e-017
Spine  6.01027 -1.15959 -1.50723
Spine1  11.2832 -1.64129 0.636687
HEad  6.82385 -0.217172 -2.85595
LeftShoulder1  -0.0809668 3.72267 -30.8773
LeftArm  10.1765 5.9408 -43.7961
LeftForeArm  19.0517 -24.6175 -4.2377
LeftHand  -0.0508093 1.89641 1.39893
RightShoulder  -0.750416 -5.65818 28.1894
RightArm  13.7449 -2.65865 44.0847
RightForeArm  13.7482 11.6887 6.10479
RightHand  -0.0500192 0.578075 -1.03974
LeftUpLeg  9.73059 4.80205 -8.1629
LeftLeg  14.3528 -0.793564 -0.0945756
LeftFoot  -16.6502 0.637352 11.5598
LeftToes  -3.54706e-010 1.16038e-010 5.28031e-012
108
root  -17.8483 38.6138 1.65013 -36.5505 -85.3129 30.3879
RightUpLeg  -15.1073 -7.86107 -6.73665
RightLeg  -2.82819 11.9425 -1.31812
RightFoot  -0.038341 -0.937806 9.88474
RightToes  2.32829e-010 0 -3.6325e-017
Spine  5.50987 -1.21641 -0.83502
Spine1  11.3893 -1.59003 0.499288
HEad  6.61621 -0.893443 -3.18188
LeftShoulder1  -0.0590356 3.66507 -30.5015
LeftArm  8.35435 5.46853 -43.722
LeftForeArm  20.6301 -26.1887 -4.52003
LeftHand  -0.0419612 1.73121 1.03604
RightShoulder  -0.741502 -5.61348 28.4974
RightArm  13.5798 -2.48931 43.8643
RightForeArm  13.3493 11.8064 6.0361
RightHand  -0.0703724 0.782088 -1.41753
LeftUpLeg  11.7275 4.56323 -7.89867
LeftLeg  14.7712 -1.15395 0.210447
LeftFoot  -18.7542 0.826989 10.9661
LeftToes  -3.54706e-010 1.16038e-010 5.28031e-012
109
root  -19.1282 38.4367 1.50667 -36.6163 -85.6403 30.0419
RightUpLeg  -17.2775 -6.53499 -5.57603
RightLeg  3.36402 11.9888 -0.545077
RightFoot  6.34692 -0.743125 4.81975
RightToes  2.32829e-010 0 -3.6325e-017
Spine  5.87168 -0.936501 0.976011
Spine1  11.4199 -1.18374 0.293667
HEad  6.61248 -0.903463 -3.64581
LeftShoulder1  -0.0819765 3.72623 -30.7582
LeftArm  7.67721 5.10537 -42.9518
LeftForeArm  20.6903 -27.3065 -4.76528
LeftHand  -0.0618997 1.58519 1.66896
RightShoulder  -0.74499 -5.61658 28.6081
RightArm  13.9909 -2.18463 43.5929
RightForeArm  13.2598 12.0771 6.05862
RightHand  -0.0647883 1.40277 -1.24062
LeftUpLeg  14.4542 4.33755 -7.39089
LeftLeg  14.563 -0.507283 0.505651
LeftFoot  -20.024 0.894236 10.1844
LeftToes  -3.54706e-010 1.16038e-010 5.28031e-012
110
root  -20.5548 38.111 1.39444 -33.0095 -85.6701 25.7797
RightUpLeg  -18.7379 -4.62835 -5.89269
RightLeg  10.8957 11.3307 1.3234
RightFoot  11.0283 -1.06924 5.78352
RightToes  2.32829e-010 0 -3.6325e-017
Spine  5.96307 -1.25333 3.00257
Spine1  11.3448 -1.15172 -0.914218
HEad  6.80184 -0.0902248 -4.96703
LeftShoulder1  -0.0981877 3.76655 -31.2023
LeftArm  5.95276 5.61212 -42.2683
LeftForeArm  21.4185 -28.1816 -4.92201
LeftHand  -0.0650093 2.114 1.92032
RightShoulder  -0.789832 -5.72961 28.8584
RightArm  14.0765 -1.17106 43.5025
RightForeArm  13.6848 11.8326 6.16735
RightHand  -0.0610839 1.28855 -1.17175
LeftUpLeg  16.4449 3.3902 -7.14429
LeftLeg  16.9703 0.715586 0.960834
LeftFoot  -22.0066 0.92352 8.47065
LeftToes  -3.54706e-010 1.16038e-010 5.28031e-012
111
root  -21.969 37.9202 1.32596 -20.8638 -86.0065 13.2375
RightUpLeg  -20.3391 -2.57525 -5.73551
RightLeg  19.4762 9.08939 3.45553
RightFoot  6.47813 -0.685462 4.6558
RightToes  2.32829e-010 0 -3.6325e-017
Spine  5.73938 -1.61613 5.51942
Spine1  11.3984 -1.35555 -1.38387
HEad  7.65039 1.40481 -6.18651
LeftShoulder1  -0.161812 3.92807 -32.0278
LeftArm  5.38215 5.84728 -41.9176
LeftForeArm  21.4137 -27.4142 -4.75079
LeftHand  -0.0856878 1.87436 2.57146
RightShoulder  -0.768747 -5.67775 28.7235
RightArm  13.7118 -0.192124 43.4434
RightForeArm  14.4326 11.5137 6.16346
RightHand  -0.0174686 0.86485 -0.417958
LeftUpLeg  17.6388 2.49058 -5.92934
LeftLeg  20.2018 1.08884 0.843599
LeftFoot  -22.7174 0.694884 5.60853
LeftToes  -3.54706e-010 1.16038e-010 5.28031e-012
112
root  -23.3277 37.9122 1.19949 -6.25885 -85.3395 -1.02157
RightUpLeg  -20.5922 -1.91655 -4.64372
RightLeg  23.9114 7.60274 3.46188
RightFoot  2.92972 -0.447139 3.72505
RightToes  2.32829e-010 0 -3.6325e-017
Spine  4.41064 -1.91982 6.60822
Spine1  11.9294 -2.02892 0.0546599
HEad  9.00637 1.98784 -6.45738
LeftShoulder1  -0.175271 3.95484 -32.7499
LeftArm  5.14387 6.353 -42.3209
LeftForeArm  21.1796 -25.6804 -4.37854
LeftHand  -0.0761793 2.50357 2.5211
RightShoulder  -0.757042 -5.65282 28.5841
RightArm  12.8131 0.687795 43.2696
RightForeArm  13.7964 10.6922 6.19168
RightHand  -0.0493594 1.03993 -0.998888
LeftUpLeg  17.0417 3.03686 -3.40833
LeftLeg  24.8004 -1.0985 -0.236877
LeftFoot  -21.3822 0.250576 1.25839
LeftToes  -3.54706e-010 1.16038e-010 5.28031e-012
113
root  -24.4952 38.0787 1.06951 0.797209 -83.1178 -7.51235
RightUpLeg  -19.6553 -2.67711 -3.94363
RightLeg  25.4593 6.27859 3.03454
RightFoot  0.71114 -0.286258 2.77362
RightToes  2.32829e-010 0 -3.6325e-017
Spine  3.9033 -2.68349 6.7369
Spine1  11.4953 -3.19029 2.18957
HEad  10.3557 1.98242 -5.79433
LeftShoulder1  -0.184522 3.98687 -32.0629
LeftArm  6.04986 7.40291 -43.4275
LeftForeArm  20.1304 -24.1492 -4.11539
LeftHand  -0.0361124 3.17494 1.06257
RightShoulder  -0.770801 -5.68393 28.7198
RightArm  12.2665 0.68479 43.0187
RightForeArm  13.2422 11.1939 5.91339
RightHand  -0.0526856 1.2032 -1.05626
LeftUpLeg  14.2616 3.88085 -0.615803
LeftLeg  31.4411 -3.0876 -1.70594
LeftFoot  -16.6977 -0.0608315 -3.55214
LeftToes  -3.54706e-010 1.16038e-010 5.28031e-012
114
root  -25.5427 38.3145 0.980887 5.48832 -81.1579 -11.475
RightUpLeg  -18.1727 -4.61625 -3.09023
RightLeg  25.2283 6.32121 3.0179
RightFoot  -1.21034 -0.271265 2.9766
RightToes  2.32829e-010 0 -3.6325e-017
Spine  4.14198 -3.03582 7.80069
Spine1  10.1029 -3.60762 3.17042
HEad  10.2791 0.35457 -5.05148
LeftShoulder1  -0.20478 4.03313 -32.5653
LeftArm  9.11816 7.20051 -43.2627
LeftForeArm  19.78 -22.9713 -3.99884
LeftHand  -0.0224134 3.5267 0.313781
RightShoulder  -0.767387 -5.69992 28.3074
RightArm  11.4063 -0.14687 43.2295
RightForeArm  12.6435 12.2943 5.39149
RightHand  -0.0534443 0.558694 -1.10516
LeftUpLeg  9.49149 6.07754 2.37331
LeftLeg  39.6255 -3.11762 -2.31862
LeftFoot  -8.23984 0.178384 -5.27374
LeftToes  -3.54706e-010 1.16038e-010 5.28031e-012
115
root  -26.5156 38.5518 0.953594 6.60758 -79.624 -11.9215
RightUpLeg  -16.6424 -5.50373 -2.79953
RightLeg  24.6313 6.0088 2.77732
RightFoot  -2.80688 -0.271256 3.368
RightToes  2.32829e-010 0 -3.6325e-017
Spine  3.33209 -3.11341 9.43946
Spine1  10.678 -3.39834 2.56714
HEad  9.00738 -1.15242 -4.65688
LeftShoulder1  -0.181543 3.9721 -32.6258
LeftArm  10.0423 6.68927 -43.3212
LeftForeArm  21.9915 -22.5965 -3.9463
LeftHand  0.0092293 3.12944 -1.50671
RightShoulder  -0.770174 -5.69633 28.492
RightArm  11.7825 0.0788796 43.1501
RightForeArm  11.3929 13.2681 5.25952
RightHand  -0.0168968 0.781643 -0.39681
LeftUpLeg  4.31091 8.19377 3.83151
LeftLeg  47.0282 -0.172305 0.260445
LeftFoot  -0.360272 0.449583 -4.68633
LeftToes  -3.54706e-010 1.16038e-010 5.28031e-012
116
root  -27.4158 38.8436 0.938473 4.18141 -78.7791 -9.52211
RightUpLeg  -14.176 -7.21841 -3.14413
RightLeg  23.3546 6.87194 3.01473
RightFoot  -3.70301 -0.242098 3.24731
RightToes  2.32829e-010 0 -3.6325e-017
Spine  3.68846 -2.88078 9.57351
Spine1  10.8881 -3.06078 2.75922
HEad  7.69731 -2.51398 -4.3271
LeftShoulder1  -0.0924565 3.7435 -32.4719
LeftArm  10.0516 7.13492 -43.7108
LeftForeArm  23.5016 -23.4229 -3.81719
LeftHand  0.0182521 3.55994 -2.49281
RightShoulder  -0.741935 -5.63234 28.2076
RightArm  13.3588 1.24234 43.3348
RightForeArm  9.97077 13.5936 5.56721
RightHand  -0.0542881 0.970986 -1.09095
LeftUpLeg  0.470452 10.9649 4.3836
LeftLeg  52.3089 2.60962 4.05036
LeftFoot  1.31182 0.339428 -3.09053
LeftToes  -3.54706e-010 1.16038e-010 5.28031e-012
117
root  -28.3104 39.1738 0.979277 0.0237765 -78.5946 -5.39251
RightUpLeg  -11.6407 -8.61783 -4.12157
RightLeg  21.7658 8.28624 3.4055
RightFoot  -4.00353 -0.238138 3.28779
RightToes  2.32829e-010 0 -3.6325e-017
Spine  4.25394 -2.57159 9.67991
Spine1  10.5802 -2.48177 1.84123
HEad  7.22497 -3.69199 -3.88517
LeftShoulder1  -0.0855612 3.72594 -32.3949
LeftArm  9.42711 7.90774 -43.5519
LeftForeArm  23.7046 -24.0781 -3.90362
LeftHand  0.0273302 3.01924 -2.2472
RightShoulder  -0.706525 -5.55243 27.822
RightArm  15.4484 2.21461 43.7774
RightForeArm  10.0658 14.5307 5.69045
RightHand  -0.086937 1.17606 -1.65664
LeftUpLeg  -2.96183 14.2009 4.16917
LeftLeg  55.3221 3.25808 5.53464
LeftFoot  0.461408 0.198988 -1.95893
LeftToes  -3.54706e-010 1.16038e-010 5.28031e-012
